<?xml version="1.0" standalone="no"?>
<!DOCTYPE svg PUBLIC "-//W3C//DTD SVG 20010904//EN"
 "http://www.w3.org/TR/2001/REC-SVG-20010904/DTD/svg10.dtd">
<svg version="1.0" xmlns="http://www.w3.org/2000/svg"
 width="1000.000000pt" height="1000.000000pt" viewBox="0 0 1000.000000 1000.000000"
 preserveAspectRatio="xMidYMid meet">
<metadata>
Created by potrace 1.14, written by Peter Selinger 2001-2017
</metadata>
<g transform="translate(0.000000,1000.000000) scale(0.100000,-0.100000)"
fill="#000000" stroke="none">
<path d="M3408 9411 c-74 -24 -116 -51 -168 -107 -46 -50 -77 -112 -88 -176
l-7 -42 -170 -23 c-507 -67 -1348 -173 -1350 -171 -1 2 -15 27 -30 56 -36 67
-100 126 -173 160 -49 23 -70 27 -147 27 -118 0 -191 -31 -269 -116 -70 -75
-99 -147 -99 -249 -1 -81 26 -158 79 -228 l26 -33 -223 -342 c-122 -188 -258
-399 -303 -468 l-81 -127 -63 -5 c-250 -24 -404 -284 -303 -512 42 -96 121
-167 222 -200 35 -12 51 -23 54 -38 3 -12 53 -258 111 -547 l105 -525 -23
-108 -23 -109 -52 -24 c-79 -38 -147 -105 -185 -182 -30 -60 -33 -75 -33 -157
0 -76 4 -99 27 -147 35 -76 100 -143 173 -181 51 -26 74 -31 151 -35 l90 -4
106 -182 c58 -99 223 -383 367 -630 l261 -448 -26 -31 c-14 -16 -37 -53 -51
-81 -23 -44 -27 -64 -27 -146 -1 -88 2 -101 31 -161 39 -79 102 -140 181 -177
50 -23 69 -27 152 -27 77 1 105 5 148 24 52 23 53 23 74 5 12 -11 216 -199
453 -418 236 -220 431 -400 433 -401 2 -2 -7 -31 -19 -66 -17 -51 -20 -81 -17
-144 7 -143 75 -247 200 -309 64 -32 79 -36 152 -36 105 0 142 11 222 66 l66
45 261 -150 c144 -82 431 -247 637 -365 l375 -215 0 -113 c0 -100 3 -119 26
-168 65 -139 224 -231 371 -214 72 7 164 51 221 103 87 80 131 224 104 339
-14 62 -14 63 7 77 21 13 1099 663 1187 716 l47 27 49 -47 c75 -72 130 -95
238 -99 118 -5 182 18 264 94 85 78 116 150 115 270 0 81 -3 98 -30 152 l-30
62 462 414 c424 380 464 413 481 400 31 -23 142 -54 198 -54 73 0 171 33 224
75 95 76 141 171 141 290 0 88 -21 151 -74 225 l-36 50 365 624 366 624 92 4
c76 2 102 8 149 31 74 36 139 101 175 175 25 51 28 68 28 157 0 89 -3 106 -27
156 -28 55 -79 117 -130 154 l-28 20 24 235 c13 129 43 434 67 677 l43 441 57
28 c136 65 223 222 204 370 -11 87 -67 187 -134 240 -56 44 -155 84 -210 84
-24 0 -52 41 -326 486 l-300 486 33 67 c45 92 53 176 23 268 -85 263 -389 347
-601 166 l-41 -36 -796 69 c-660 57 -796 71 -800 84 -62 190 -258 303 -443
256 -164 -42 -264 -165 -278 -341 l-7 -84 -473 -400 c-261 -221 -477 -401
-482 -401 -5 0 -37 7 -71 16 -68 17 -137 14 -205 -9 l-39 -14 -479 391 -479
391 -1 95 c-1 80 -6 104 -29 153 -75 164 -273 253 -439 198z m3887 -461 c890
-78 1051 -93 1059 -101 5 -4 6 -23 2 -43 -5 -28 -13 -37 -39 -45 -54 -17
-1235 -311 -1250 -311 -13 0 -297 335 -305 359 -2 5 8 27 21 48 13 21 32 60
42 86 l18 49 61 -6 c34 -4 210 -20 391 -36z m-4091 -85 c42 -78 137 -142 242
-165 l49 -11 32 -182 c17 -100 30 -183 29 -185 -2 -1 -59 11 -127 27 -68 17
-234 55 -369 87 -524 121 -478 108 -450 126 56 37 565 338 570 338 3 0 14 -16
24 -35z m-369 17 c-13 -12 -449 -270 -467 -277 -8 -3 -93 12 -189 35 -96 22
-236 55 -312 72 -75 17 -135 33 -132 36 4 5 1037 139 1085 141 14 1 20 -3 15
-7z m3497 -157 l66 -28 6 -56 c3 -31 8 -124 12 -207 l7 -152 -54 -15 c-72 -21
-1016 -257 -1028 -257 -4 0 -20 18 -34 39 l-26 40 449 374 449 375 44 -42 c24
-23 73 -55 109 -71z m-2069 -270 c245 -198 446 -363 447 -366 0 -3 -6 -12 -12
-21 -12 -14 -30 -11 -173 23 -88 21 -236 56 -330 78 -93 22 -238 57 -321 76
l-151 36 -31 177 c-51 288 -50 257 -6 280 22 11 55 34 74 51 19 17 40 29 46
28 6 -1 211 -164 457 -362z m2522 114 c72 -88 131 -163 133 -167 2 -6 -276
-77 -303 -77 -6 0 -13 43 -16 95 -4 52 -10 138 -13 192 l-7 96 28 10 c15 6 33
11 38 11 6 1 69 -71 140 -160z m-5018 7 c82 -19 203 -47 271 -63 67 -15 122
-30 122 -33 -1 -3 -45 -31 -98 -62 -53 -31 -279 -165 -501 -298 -222 -132
-406 -239 -408 -237 -2 2 15 87 38 188 23 101 49 218 58 259 l16 75 61 7 c34
3 84 18 111 31 52 27 123 92 150 138 10 16 21 29 25 29 4 0 74 -15 155 -34z
m6588 15 c-22 -21 -840 -651 -845 -650 -6 0 -301 355 -303 365 -2 7 1097 290
1138 293 12 0 15 -3 10 -8z m160 -122 c79 -59 234 -78 334 -40 l50 19 224
-367 c124 -201 248 -403 276 -449 28 -46 51 -87 51 -91 0 -4 -20 -22 -44 -39
-115 -83 -172 -220 -148 -357 l10 -60 -245 -347 c-135 -192 -249 -350 -253
-353 -10 -6 -1175 1413 -1175 1432 0 14 852 683 870 683 6 -1 28 -14 50 -31z
m-5658 -144 c252 -58 520 -120 596 -137 117 -27 138 -35 142 -52 3 -12 34
-181 70 -376 35 -195 69 -377 74 -405 5 -27 9 -51 8 -51 -1 -1 -229 -149 -507
-329 -278 -181 -600 -390 -716 -465 -116 -76 -220 -142 -230 -147 -15 -8 -146
53 -673 313 l-653 324 6 42 c19 123 136 622 148 629 7 4 294 177 638 383 344
206 628 375 632 375 4 1 213 -46 465 -104z m-1814 -237 c-29 -145 -57 -276
-61 -293 -7 -26 -33 -45 -187 -138 -222 -133 -240 -143 -229 -125 4 7 103 162
219 343 117 182 233 363 258 403 26 39 49 72 51 72 2 0 -21 -118 -51 -262z
m6172 -39 c148 -176 175 -213 164 -224 -8 -7 -169 -133 -359 -280 -290 -225
-346 -264 -351 -248 -6 14 -49 698 -53 838 l-1 30 195 47 c107 25 202 47 211
47 10 1 90 -86 194 -210z m-726 -361 c13 -238 24 -456 25 -484 l1 -51 -1025
-793 c-564 -436 -1065 -824 -1113 -862 -49 -38 -90 -68 -92 -66 -3 3 51 171
474 1497 l176 553 70 3 c102 4 177 35 245 104 65 65 100 133 107 207 3 30 11
55 19 58 7 3 244 62 526 131 282 70 515 128 517 131 2 2 14 4 26 4 21 0 22 -4
44 -432z m-2482 373 c120 -28 308 -70 418 -95 110 -25 201 -46 203 -46 2 0 2
-12 0 -27 -3 -23 -51 -57 -363 -258 -198 -128 -363 -230 -366 -226 -4 3 -23
96 -43 206 -21 110 -50 266 -65 348 -22 115 -25 147 -15 147 8 0 112 -22 231
-49z m3690 -586 c104 -126 360 -437 569 -690 209 -253 395 -479 413 -502 l33
-42 -297 -418 c-163 -230 -303 -425 -311 -433 -12 -12 -120 -16 -666 -26 -359
-7 -655 -10 -658 -8 -2 3 -15 186 -28 407 -12 221 -35 609 -50 861 l-27 459
60 48 c249 198 761 586 766 581 3 -4 91 -110 196 -237z m-3022 195 c4 -12 31
-46 61 -76 l54 -56 -51 -162 c-28 -88 -142 -449 -254 -801 -112 -352 -221
-696 -243 -765 -31 -98 -41 -120 -46 -100 -18 73 -276 1514 -272 1518 17 16
723 462 733 462 6 0 15 -9 18 -20z m-3759 -144 c-3 -14 -26 -118 -51 -232 -25
-115 -48 -210 -51 -213 -3 -3 -21 3 -40 14 l-35 20 -2 96 c-2 82 -7 104 -30
148 l-27 52 33 19 c17 11 68 42 112 69 44 27 84 50 89 50 4 1 5 -10 2 -23z
m2910 -647 c116 -654 137 -775 165 -934 16 -93 41 -230 54 -304 14 -74 25
-142 25 -152 0 -13 -184 73 -802 376 -442 217 -809 398 -817 402 -9 6 114 91
405 278 230 149 531 343 669 432 137 89 251 160 253 159 1 -2 23 -117 48 -257z
m-3095 65 c48 -24 50 -27 44 -57 -6 -29 -35 -164 -127 -584 -18 -84 -35 -153
-38 -153 -6 0 -143 691 -138 695 2 1 28 13 58 27 30 14 73 42 95 61 22 20 44
36 48 37 4 0 30 -11 58 -26z m5823 -301 c10 -175 31 -536 46 -803 16 -267 26
-488 22 -491 -4 -4 -446 -12 -982 -18 -536 -6 -1033 -13 -1103 -16 -82 -4
-128 -2 -125 4 1 5 397 314 878 687 481 372 955 739 1054 815 98 77 181 139
185 139 4 0 15 -143 25 -317z m2864 253 c28 -19 74 -40 101 -47 46 -11 51 -16
51 -40 0 -16 -22 -252 -50 -526 -27 -274 -52 -534 -56 -578 -13 -144 11 -161
-288 202 -148 180 -269 332 -269 338 1 10 451 685 457 685 2 0 27 -15 54 -34z
m-8377 -105 c57 -27 274 -132 482 -235 208 -102 428 -209 488 -237 60 -29 109
-56 109 -61 0 -4 -33 -29 -72 -55 -81 -51 -557 -359 -946 -610 -139 -89 -255
-163 -258 -163 -7 0 -97 63 -105 73 -3 4 -16 61 -29 125 l-23 117 47 215 c26
118 79 359 117 535 73 334 76 345 82 345 2 0 51 -22 108 -49z m1598 -790 c190
-93 490 -240 666 -326 176 -86 414 -202 528 -258 150 -72 203 -103 190 -108
-10 -3 -243 -9 -518 -13 -275 -3 -581 -8 -680 -11 -99 -3 -468 -10 -820 -15
-352 -5 -737 -12 -856 -16 l-216 -6 -5 25 c-4 23 41 54 676 461 374 240 682
436 685 436 2 0 160 -76 350 -169z m6420 -189 c127 -156 231 -286 231 -290 0
-4 -20 -18 -44 -30 -24 -13 -64 -43 -88 -67 l-43 -44 -407 -7 c-225 -4 -408
-4 -408 0 0 15 515 735 521 728 4 -4 111 -134 238 -290z m-7 -669 c5 -93 37
-165 103 -233 l43 -45 -115 -195 c-64 -107 -227 -384 -363 -615 l-248 -419
-113 -1 c-103 0 -119 -3 -169 -27 -30 -15 -74 -46 -98 -69 l-42 -42 -157 76
c-87 41 -270 130 -406 197 -242 119 -248 122 -234 143 29 44 899 1272 908
1282 9 9 186 14 745 23 l141 2 5 -77z m-1072 63 c0 -2 -188 -269 -417 -593
-230 -324 -425 -599 -433 -612 l-16 -23 -129 63 -130 64 -6 90 c-24 335 -62
985 -58 989 9 9 1189 31 1189 22z m-1350 -24 c0 -19 50 -834 56 -915 l7 -88
-149 74 c-82 41 -522 258 -979 482 -456 224 -834 412 -839 416 -6 5 72 9 180
10 104 1 486 7 849 13 892 17 875 17 875 8z m-2710 -39 c-1 -6 -1377 -1076
-1930 -1501 l-108 -83 -36 25 c-66 45 -129 59 -231 53 l-91 -5 -189 321 c-104
177 -267 456 -363 619 l-174 297 31 27 c37 31 75 93 97 156 l15 46 272 6 c277
7 2304 42 2565 45 78 0 142 -2 142 -6z m1601 -564 c640 -313 1167 -573 1171
-577 4 -4 14 -130 23 -279 l16 -273 -138 -197 c-77 -109 -172 -245 -213 -303
-40 -58 -75 -106 -76 -108 -1 -2 -161 -44 -356 -94 -194 -50 -489 -125 -656
-168 l-303 -78 -117 32 -117 32 -17 90 c-9 49 -89 489 -178 979 -88 490 -185
1025 -215 1191 -30 165 -55 306 -55 312 0 41 91 0 1231 -559z m-1327 231 c19
-107 56 -310 81 -450 25 -140 61 -340 80 -445 62 -343 134 -745 185 -1024 27
-151 48 -277 45 -279 -2 -3 -48 7 -102 21 -54 13 -206 53 -338 87 -132 34
-333 86 -448 116 -114 30 -210 54 -212 54 -3 0 -5 5 -5 12 0 7 86 282 191 613
105 330 254 798 330 1040 158 496 150 473 155 460 1 -5 19 -98 38 -205z m-364
-295 c-429 -1352 -505 -1585 -517 -1580 -7 2 -301 77 -653 166 l-639 162 -6
46 c-4 25 -13 66 -22 90 -13 37 -14 45 -2 52 13 7 513 395 1608 1246 200 156
367 283 371 283 4 0 -59 -209 -140 -465z m3117 -633 l72 -37 -67 -93 -67 -93
-6 33 c-10 47 -17 228 -10 228 3 -1 38 -18 78 -38z m633 -315 l405 -202 -3
-50 c-2 -27 -4 -51 -5 -52 -1 0 -238 -61 -525 -134 -411 -104 -526 -129 -532
-119 -6 10 -26 321 -24 380 0 20 256 380 269 379 5 0 192 -91 415 -202z m-819
-507 l4 -105 -105 -26 c-58 -14 -107 -25 -109 -23 -2 2 41 66 95 142 55 77
102 134 105 128 4 -6 8 -58 10 -116z m-4306 -65 c648 -164 810 -207 816 -213
4 -4 -28 -113 -70 -242 l-77 -235 -69 -7 c-44 -4 -92 -17 -128 -34 l-58 -28
-62 60 c-34 34 -238 225 -453 426 -429 401 -440 415 -306 378 37 -10 220 -57
407 -105z m5563 96 c-1 -5 -138 -129 -303 -277 -165 -147 -373 -333 -463 -413
-90 -80 -167 -145 -170 -144 -4 2 -31 11 -60 21 -29 11 -55 22 -59 25 -3 4
-13 122 -22 262 l-16 255 30 10 c16 5 201 53 410 106 209 53 436 112 505 129
137 36 153 39 148 26z m-1248 -318 c0 -10 7 -115 15 -233 8 -118 15 -223 15
-232 0 -11 -14 -24 -36 -33 -57 -24 -128 -81 -160 -127 -15 -24 -29 -45 -31
-47 -1 -2 -65 13 -140 33 -76 20 -187 49 -248 65 -68 18 -109 33 -107 40 1 7
73 113 160 236 l157 224 175 44 c205 53 200 52 200 30z m-3225 -57 c50 -13
306 -79 570 -146 263 -67 488 -126 498 -131 25 -14 17 -32 -19 -40 -16 -3
-137 -34 -269 -69 -132 -34 -305 -79 -385 -100 -80 -20 -230 -59 -334 -86
l-189 -49 -15 25 c-9 14 -41 50 -72 80 l-56 55 30 95 c17 53 51 162 76 243 32
104 49 147 60 147 8 0 56 -11 105 -24z m2615 -71 c0 -5 -234 -339 -251 -359
-4 -5 -134 23 -299 64 -160 40 -289 74 -288 75 4 3 224 63 443 120 99 26 225
60 280 75 111 31 115 32 115 25z m-781 -401 c212 -52 394 -98 404 -101 11 -3
16 -11 13 -20 -8 -19 -634 -913 -655 -934 -14 -14 -24 -15 -74 -6 -35 7 -59
17 -62 27 -2 8 -23 116 -45 240 -22 124 -64 362 -95 529 -30 168 -52 307 -49
310 4 5 109 35 173 50 2 1 178 -42 390 -95z m-711 -69 c17 -93 83 -462 137
-765 27 -150 40 -246 34 -249 -6 -1 -29 -17 -52 -35 -23 -18 -47 -35 -54 -39
-8 -5 -116 52 -270 141 -330 191 -699 403 -878 505 -77 44 -141 81 -143 82 -1
1 1 31 5 66 l8 63 585 152 c322 84 592 151 600 151 10 -2 19 -24 28 -72z
m1580 -166 c152 -39 278 -71 278 -72 1 -1 4 -18 8 -38 l6 -36 -182 -110 c-172
-103 -695 -420 -962 -582 -65 -39 -120 -70 -122 -69 -3 4 687 978 693 978 2 0
128 -32 281 -71z"/>
</g>
</svg>
