<svg width="17" height="13" viewBox="0 0 17 13" fill="none" xmlns="http://www.w3.org/2000/svg">
<path d="M14.2544 0.62944C14.5273 0.3696 14.8905 0.22595 15.2674 0.228801C15.6442 0.231653 16.0052 0.380783 16.2741 0.644723C16.5431 0.908663 16.699 1.26677 16.709 1.64348C16.7189 2.02019 16.5822 2.38603 16.3275 2.66382L8.59691 12.3319C8.46398 12.4751 8.30354 12.59 8.12519 12.6698C7.94684 12.7495 7.75423 12.7925 7.55889 12.7961C7.36355 12.7997 7.16949 12.7639 6.98831 12.6908C6.80713 12.6177 6.64255 12.5088 6.50441 12.3707L1.37778 7.24407C1.23501 7.11103 1.1205 6.95061 1.04108 6.77236C0.961658 6.59411 0.918952 6.40169 0.915509 6.20658C0.912067 6.01147 0.947959 5.81766 1.02104 5.63672C1.09413 5.45578 1.20291 5.29142 1.34089 5.15343C1.47888 5.01544 1.64325 4.90666 1.82419 4.83358C2.00513 4.76049 2.19893 4.7246 2.39404 4.72804C2.58916 4.73149 2.78157 4.77419 2.95982 4.85361C3.13807 4.93304 3.2985 5.04755 3.43153 5.19032L7.48866 9.2455L14.2176 0.672066C14.2297 0.657149 14.2426 0.642918 14.2563 0.62944H14.2544Z" fill="white"/>
</svg>
